<?xml version="1.0" standalone="no"?>
<!DOCTYPE svg PUBLIC "-//W3C//DTD SVG 20010904//EN"
 "http://www.w3.org/TR/2001/REC-SVG-20010904/DTD/svg10.dtd">
<svg version="1.0" xmlns="http://www.w3.org/2000/svg"
 width="862.000000pt" height="592.000000pt" viewBox="0 0 862.000000 592.000000"
 preserveAspectRatio="xMidYMid meet">

<g transform="translate(0.000000,592.000000) scale(0.100000,-0.100000)"
fill="#000000" stroke="none">
<path d="M4145 5756 c-160 -37 -277 -108 -412 -250 -217 -229 -360 -543 -474
-1048 -17 -73 -37 -160 -44 -193 -8 -33 -15 -81 -15 -106 l0 -47 -87 -43
c-148 -73 -304 -243 -402 -438 -52 -101 -547 -1194 -561 -1235 -19 -58 -9
-190 19 -248 36 -74 94 -133 169 -170 l66 -33 253 -3 252 -3 7 -67 c11 -110
53 -170 134 -192 25 -7 459 -9 1277 -8 l1239 3 43 28 c49 33 80 91 81 152 1
91 -21 83 269 87 254 3 257 3 313 30 73 34 142 103 176 176 24 50 27 69 27
152 -1 102 1 96 -117 350 -16 36 -97 211 -178 390 -82 179 -179 393 -217 475
-87 190 -162 306 -267 410 -82 82 -153 131 -251 171 l-50 20 -7 70 c-4 38 -17
94 -27 124 -11 30 -32 111 -46 179 -143 678 -435 1126 -813 1248 -96 31 -265
40 -357 19z m320 -107 c81 -25 179 -79 228 -127 93 -90 244 -380 326 -627 28
-82 48 -151 46 -153 -3 -3 -37 11 -77 30 -40 20 -102 45 -138 56 -135 43 -175
47 -455 46 -226 -1 -289 -5 -385 -22 -214 -39 -408 -116 -537 -214 -57 -43
-83 -57 -83 -44 0 25 92 292 134 391 175 409 400 634 684 685 66 12 181 3 257
-21z m-230 -917 c-6 -5 -35 -19 -65 -31 -80 -33 -83 -41 -13 -41 87 0 223 26
290 55 74 33 89 27 33 -14 l-45 -33 72 4 c44 3 88 13 114 26 l42 21 38 -32 38
-32 -397 -5 -397 -5 -40 -25 -40 -25 38 -3 c20 -2 37 -9 37 -15 0 -7 -17 -41
-38 -77 -30 -52 -43 -66 -66 -68 -35 -4 -56 13 -56 46 0 24 -1 25 -20 7 -32
-29 -26 4 10 54 38 52 128 111 222 145 109 39 269 71 243 48z m-619 -159 c3
-10 14 -37 25 -61 10 -24 19 -65 19 -92 0 -49 -1 -50 -31 -50 -62 0 -93 37
-105 130 -6 48 -5 54 17 71 31 24 68 24 75 2z m384 6 c0 -12 -78 -147 -89
-154 -4 -2 -13 0 -20 5 -22 13 65 160 96 160 7 0 13 -5 13 -11z m170 -58 c0
-58 -3 -72 -19 -84 -25 -17 -196 -23 -206 -8 -3 6 12 45 35 86 l41 75 75 0 74
0 0 -69z m220 -2 c0 -79 17 -119 59 -140 41 -20 315 -25 369 -6 55 19 57 15
49 -101 -13 -202 -126 -374 -303 -462 l-69 -35 -190 0 -190 0 -65 31 c-90 43
-160 102 -214 182 -67 98 -88 165 -94 302 l-5 114 29 -19 c26 -18 47 -20 209
-20 253 0 258 4 265 218 0 4 34 7 75 7 l75 0 0 -71z m250 62 c0 -5 -20 -42
-44 -83 -42 -71 -44 -73 -81 -72 -25 1 -43 8 -52 20 -13 18 -18 125 -6 137 10
11 183 8 183 -2z m54 1 c6 -10 -74 -150 -89 -156 -7 -2 -17 -1 -23 3 -7 4 5
33 35 84 41 70 64 90 77 69z m141 -64 c0 -39 -5 -72 -12 -79 -14 -14 -179 -24
-187 -11 -2 4 16 43 40 85 l45 78 57 -3 57 -3 0 -67z m202 47 c45 -27 46 -29
43 -84 -4 -80 -44 -131 -102 -131 l-38 0 0 114 c0 116 2 123 39 125 8 1 34
-10 58 -24z m-1649 -493 c43 -112 137 -220 230 -265 23 -12 42 -25 42 -29 0
-4 -31 -8 -68 -8 l-69 0 -70 73 c-80 83 -114 138 -138 221 -20 67 -17 182 6
229 12 27 14 24 30 -70 9 -54 26 -122 37 -151z m-194 -224 c33 -17 86 -58 86
-67 0 -5 -44 -10 -99 -13 -83 -4 -108 -10 -164 -36 -118 -55 -207 -174 -222
-296 -3 -28 3 -161 15 -296 60 -701 82 -971 83 -1025 l2 -60 -230 0 c-229 1
-230 1 -280 27 -89 47 -143 144 -132 237 4 32 94 240 283 656 289 636 305 668
384 775 61 82 81 100 122 111 39 9 123 2 152 -13z m2344 -213 c49 -21 120 -90
143 -140 25 -53 24 -131 -2 -425 -11 -129 -39 -464 -63 -744 -38 -454 -45
-510 -61 -522 -28 -20 -2472 -21 -2499 -1 -17 12 -25 87 -77 693 -32 373 -62
740 -65 814 -6 122 -5 140 13 180 29 65 66 105 125 134 l52 26 1198 0 c1059 0
1203 -2 1236 -15z"/>
<path d="M3590 4430 c0 -5 5 -10 10 -10 6 0 10 5 10 10 0 6 -4 10 -10 10 -5 0
-10 -4 -10 -10z"/>
<path d="M4327 4253 c-13 -14 -20 -14 -47 -3 -39 16 -52 4 -21 -21 29 -24 62
-24 91 -1 19 15 20 20 8 30 -11 9 -18 8 -31 -5z"/>
<path d="M4430 4077 c-33 -16 -72 -23 -149 -27 -114 -5 -147 -23 -66 -35 90
-14 285 35 285 71 0 19 -16 16 -70 -9z"/>
<path d="M4986 4423 c-11 -11 -6 -23 9 -23 8 0 15 4 15 9 0 13 -16 22 -24 14z"/>
<path d="M4192 2964 c-145 -72 -202 -245 -126 -385 52 -95 142 -149 249 -149
108 0 196 54 250 151 25 46 29 65 29 129 0 86 -27 151 -86 207 -80 77 -216 97
-316 47z m199 -107 c153 -81 96 -311 -77 -311 -172 0 -226 236 -72 313 55 27
94 27 149 -2z"/>
<path d="M1800 4866 c0 -11 753 -1315 760 -1316 3 0 20 34 39 75 41 91 151
262 215 332 59 65 156 143 232 186 l58 32 12 70 c6 39 19 95 27 125 9 30 26
100 38 155 12 55 37 154 55 219 19 65 33 121 31 123 -9 8 -1467 7 -1467 -1z"/>
<path d="M5604 4872 l-291 -2 34 -118 c19 -64 45 -169 59 -232 14 -63 34 -142
45 -175 11 -32 23 -81 26 -108 6 -46 8 -49 57 -74 186 -94 335 -254 462 -496
l51 -98 23 38 c123 208 720 1243 722 1252 3 12 -580 19 -1188 13z"/>
<path d="M1277 1033 c-4 -3 -7 -170 -7 -370 l0 -364 78 3 77 3 5 218 5 218 58
-116 57 -116 53 3 52 3 55 107 c30 59 61 113 68 120 9 9 12 -35 12 -215 l0
-227 80 0 80 0 0 345 c0 328 -1 346 -19 364 -11 11 -35 23 -54 26 -73 14 -74
13 -167 -167 -48 -92 -89 -170 -92 -173 -3 -4 -41 60 -84 142 -98 187 -113
203 -192 203 -32 0 -62 -3 -65 -7z"/>
<path d="M2422 1024 c-12 -8 -28 -27 -36 -42 -11 -22 -176 -655 -176 -676 0
-3 35 -6 78 -6 l78 0 20 83 20 82 99 3 c141 4 140 4 154 -70 20 -105 12 -98
102 -98 69 0 79 2 79 18 0 13 -122 600 -145 700 -5 21 -9 22 -128 22 -95 0
-128 -4 -145 -16z m143 -156 c16 -69 45 -223 45 -239 0 -17 -8 -19 -79 -19
-44 0 -82 4 -85 9 -6 10 38 209 54 249 6 14 18 22 35 22 17 0 26 -7 30 -22z"/>
<path d="M3161 1018 c-76 -39 -86 -61 -86 -196 0 -107 2 -120 24 -151 36 -50
90 -70 191 -71 47 0 91 -4 98 -9 9 -5 12 -27 10 -72 l-3 -64 -152 -3 -153 -3
0 -74 0 -73 143 -4 c215 -5 259 6 311 76 17 22 22 46 25 124 1 53 -2 112 -8
133 -24 80 -107 119 -252 119 l-70 0 3 68 3 67 153 3 153 3 -3 72 -3 72 -170
3 c-160 2 -173 1 -214 -20z"/>
<path d="M3860 670 l0 -370 85 0 85 0 0 150 0 150 110 0 110 0 0 -150 0 -150
90 0 90 0 -2 368 -3 367 -85 0 -85 0 -3 -142 -3 -143 -109 0 -110 0 0 145 0
145 -85 0 -85 0 0 -370z"/>
<path d="M4760 670 l0 -370 85 0 85 0 0 119 c0 66 3 126 6 135 5 12 20 16 58
16 28 0 56 -4 62 -8 6 -4 30 -64 53 -134 l43 -128 84 0 c46 0 84 2 84 4 0 19
-85 235 -102 258 l-21 30 30 24 c46 36 63 89 63 197 0 118 -22 169 -89 204
-42 22 -55 23 -243 23 l-198 0 0 -370z m355 135 l0 -90 -90 0 -90 0 -2 70 c-4
120 -7 116 95 113 l87 -3 0 -90z"/>
<path d="M5739 1025 c-15 -8 -34 -32 -43 -55 -17 -43 -166 -630 -166 -655 0
-12 14 -15 75 -15 l74 0 10 38 c5 20 12 53 16 72 12 58 17 60 136 60 125 0
119 4 139 -103 l12 -67 84 0 c46 0 84 2 84 4 0 8 -150 712 -155 724 -7 18
-231 16 -266 -3z m164 -267 c13 -73 23 -136 20 -140 -2 -5 -40 -8 -84 -8 -94
0 -91 -9 -54 148 33 138 30 132 63 132 l30 0 25 -132z"/>
<path d="M6425 1027 c-3 -6 -4 -172 -3 -367 l3 -355 79 -3 c57 -2 82 1 87 10
5 7 9 72 9 145 l0 132 118 3 117 3 3 64 c2 45 -1 67 -10 72 -7 5 -61 9 -120 9
l-108 0 0 75 0 75 130 0 130 0 0 75 0 75 -215 0 c-164 0 -217 -3 -220 -13z"/>
<path d="M7125 1027 c-3 -6 -4 -172 -3 -367 l3 -355 88 -3 87 -3 0 371 0 370
-85 0 c-60 0 -87 -4 -90 -13z"/>
</g>
</svg>
